<svg id="Layer_1" data-name="Layer 1" xmlns="http://www.w3.org/2000/svg" viewBox="0 0 186.59 186.59"><defs><style>.cls-1{fill:none;stroke:#fff;stroke-miterlimit:10;stroke-width:12px;}.cls-2{fill:#fff;}</style></defs><title>logo-v1</title><circle class="cls-1" cx="93.29" cy="93.29" r="87.29"/><path class="cls-2" d="M1398.23,545.52c-8.2-8.4-16.35-12.86-28.82-15.8,8.44-7,17.39-12.38,28-15,1.47,6.58,3.91,12.46,8.38,17.29,1.53,1.65,3.53,2.91,4.91,4.66,1.15,1.47,2.55,3.52,2.35,5.12-.5,4,1.08,7,3,10.07,3,4.92,4.08,10,1.8,16.11-10.22-10.75-23.8-12.3-37.76-14C1384.73,547.68,1390.85,545.71,1398.23,545.52Z" transform="translate(-1333.91 -418.72)"/><path class="cls-2" d="M1436.26,568c-2.32-5.87-1.26-10.85,1.5-15.64,1.94-3.34,4-6.55,3.22-10.84-.25-1.37.81-3.4,1.91-4.52,10-10.18,10-10.14,13.94-22.27,10.48,2.54,19.38,8,28.17,15.16-12.09,1.08-20.49,8-28.84,15.13,3.37.81,6.71,1.29,9.81,2.43a15,15,0,0,1,8,6.49C1460.15,555.7,1446.6,557.11,1436.26,568Z" transform="translate(-1333.91 -418.72)"/><path class="cls-2" d="M1373.71,495.15c8.42-4.68,17.7-6.67,27.47-8.62-1.59,6.77,3.43,8.13,7.76,9.42a62,62,0,0,0,37.1-.25c.27-.09.55-.16.81-.26,5.23-2,6.09-3.18,6.38-8.81,9.46,1.78,18.74,3.86,28,9-2.37,1.37-4.06,2.88-6,3.39-7.28,1.88-14.58,4.3-22,4.92-12.88,1.08-25.86,1.4-38.78,1.23-11.62-.14-23.2-1.61-34.25-5.59a54.75,54.75,0,0,1-6.65-3.39Z" transform="translate(-1333.91 -418.72)"/><path class="cls-2" d="M1447.27,479.12c-13.07,5.88-26,6.13-39,.55a2.24,2.24,0,0,1-1.12-1.81c1.64-7.56,3.35-15.1,7.21-21.94a10.81,10.81,0,0,1,1.3-1.85c2-2.23,4.32-1.9,5.58.79.4.85.66,1.77,1.06,2.62a4.91,4.91,0,0,0,4.69,3.06,5.08,5.08,0,0,0,4.93-3.15c.92-2,1.27-5.22,4.06-4.56,1.85.44,3.69,2.76,4.68,4.68C1444.1,464.24,1445.84,471.58,1447.27,479.12Z" transform="translate(-1333.91 -418.72)"/><path class="cls-2" d="M1401.26,508.91c3.22-.43,5.3,0,6,3.34.87,4,3.91,5.93,7.89,6s7.55-.7,9.6-4.65c.63-1.23,1.32-2.44,2.25-4.14.92,1.65,1.66,2.88,2.32,4.16,2.05,4,5.71,4.71,9.61,4.63s7-2,7.88-6c.75-3.35,2.81-3.78,6-3.32-.58,9.89-4.07,18.31-12.3,24.19-7.76,5.55-16.19,6.22-24.53,1.51C1406.14,529.07,1402.13,520,1401.26,508.91Z" transform="translate(-1333.91 -418.72)"/><path class="cls-2" d="M1448.1,483.71a25.64,25.64,0,0,0,.46,3.6,2.34,2.34,0,0,1-1.79,3.24c-3.68,1.08-7.35,2.5-11.12,3-8.46,1.07-17,1-25.19-1.69-5.44-1.78-5.59-2.15-4.25-8.06A53.71,53.71,0,0,0,1448.1,483.71Z" transform="translate(-1333.91 -418.72)"/><path class="cls-2" d="M1417.05,543.23a39.37,39.37,0,0,1,20,0,29.56,29.56,0,0,1-8.28,13.23,2.17,2.17,0,0,1-3.42,0A29.82,29.82,0,0,1,1417.05,543.23Z" transform="translate(-1333.91 -418.72)"/><path class="cls-2" d="M1432.22,571.43h-10.37l2.15-9.73h6.09C1430.73,564.65,1431.43,567.84,1432.22,571.43Z" transform="translate(-1333.91 -418.72)"/></svg>