<svg id="Layer_1" data-name="Layer 1" xmlns="http://www.w3.org/2000/svg" viewBox="0 0 63.71 76.54"><defs><style>.cls-1{fill:#7d7d7d;}</style></defs><title>placeholder-icon</title><path class="cls-1" d="M761.18,526.87c-6.74,0-13.49-.1-20.24,0-4.75.1-7.79-2.25-9.93-6.17a13.57,13.57,0,0,1-1.63-6.42,50.41,50.41,0,0,1,2.39-17.5,17.85,17.85,0,0,1,5.37-8.41,12.83,12.83,0,0,1,8.15-2.94,1.2,1.2,0,0,1,.75.34,21.8,21.8,0,0,0,19,5.69,20.5,20.5,0,0,0,11-5.45,2.05,2.05,0,0,1,1.71-.57c6.06.5,9.79,4,12.08,9.35a39.8,39.8,0,0,1,3,13.85,42.56,42.56,0,0,1,0,7.23c-.55,4.54-2.67,8.23-7,10.24a9.14,9.14,0,0,1-3.71.69C775.21,526.9,768.2,526.87,761.18,526.87Z" transform="translate(-729.37 -450.37)"/><path class="cls-1" d="M761.26,450.37a19.12,19.12,0,1,1-19.15,19.12A19.08,19.08,0,0,1,761.26,450.37Z" transform="translate(-729.37 -450.37)"/></svg>